<svg width="23" height="22" viewBox="0 0 23 22" fill="none" xmlns="http://www.w3.org/2000/svg">
<path opacity="0.4" d="M14.8598 1.867L17.9148 1.85209C19.1799 1.84591 20.2101 2.87472 20.2164 4.15058L20.2314 7.23129C20.2377 8.50715 19.2175 9.54597 17.9524 9.55215L14.8975 9.56707C13.6323 9.57325 12.6021 8.54443 12.5958 7.26858L12.5808 4.18786C12.5746 2.91201 13.5947 1.87318 14.8598 1.867" fill="#FF8500"/>
<path fill-rule="evenodd" clip-rule="evenodd" d="M4.45085 1.91783L7.50577 1.90291C8.77094 1.89674 9.80115 2.92555 9.80738 4.2014L9.82242 7.28212C9.82865 8.55797 8.80854 9.5968 7.54337 9.60298L4.48846 9.6179C3.22329 9.62407 2.19308 8.59526 2.18685 7.31941L2.1718 4.23869C2.16557 2.96284 3.18569 1.92401 4.45085 1.91783ZM4.50139 12.2623L7.55631 12.2474C8.82148 12.2413 9.85169 13.2701 9.85792 14.5459L9.87296 17.6266C9.87919 18.9016 8.85908 19.9413 7.59391 19.9475L4.53899 19.9624C3.27383 19.9686 2.24361 18.9389 2.23738 17.6639L2.22234 14.5832C2.21611 13.3074 3.23622 12.2685 4.50139 12.2623ZM17.9653 12.1966L14.9104 12.2115C13.6452 12.2177 12.6251 13.2565 12.6313 14.5324L12.6464 17.6131C12.6526 18.8881 13.6828 19.9178 14.948 19.9116L18.0029 19.8967C19.2681 19.8905 20.2882 18.8508 20.282 17.5758L20.2669 14.4951C20.2607 13.2192 19.2305 12.1904 17.9653 12.1966Z" fill="#FF8500"/>
</svg>
