<svg width="16" height="19" viewBox="0 0 16 19" fill="none" xmlns="http://www.w3.org/2000/svg">
<path fill-rule="evenodd" clip-rule="evenodd" d="M13.2382 7.7272C13.2247 4.95736 12.1848 2.64365 9.60142 2.04273L9.59181 0.0758753L5.98289 0.0934988L5.9925 2.06036C3.4061 2.68652 2.39786 5.0012 2.41143 7.78007L2.43566 12.7423L0.635607 13.6534L0.644419 15.4578L15.0801 15.3873L15.0713 13.5829L13.2624 12.6895L13.2382 7.7272ZM8.23619 18.0914C8.11903 18.1191 8.00179 18.1287 7.87548 18.1293C6.874 18.1342 6.06705 17.3261 6.05318 16.3337L9.6621 16.316C9.66333 16.5687 9.61937 16.8035 9.5302 17.0204C9.29827 17.5629 8.82202 17.9622 8.23619 18.0914Z" fill="#303030"/>
</svg>
