<svg width="23" height="23" viewBox="0 0 23 23" fill="none" xmlns="http://www.w3.org/2000/svg">
<circle cx="11.2526" cy="6.95525" r="4.31093" transform="rotate(-0.279791 11.2526 6.95525)" stroke="#C7C9D9" stroke-width="1.35336" stroke-linecap="round" stroke-linejoin="round"/>
<path fill-rule="evenodd" clip-rule="evenodd" d="M4.46501 17.2951C4.46237 16.9921 4.52868 16.6924 4.65894 16.4187C5.06782 15.5909 6.23012 15.1475 7.19538 14.9446C7.8915 14.7925 8.59749 14.6897 9.30808 14.637C10.6236 14.5149 11.9472 14.5085 13.2638 14.6176C13.9749 14.664 14.6818 14.7599 15.3794 14.9046C16.3466 15.0981 17.513 15.4888 17.9302 16.3539C18.1975 16.9091 18.2007 17.5552 17.9388 18.113C17.5301 18.9821 16.3676 19.3842 15.4023 19.5789C14.707 19.7371 14.0008 19.8427 13.2896 19.8948C12.2189 19.9908 11.1428 20.0126 10.0691 19.96C9.82133 19.9612 9.58184 19.9624 9.33385 19.9141C8.62488 19.8696 7.92036 19.7709 7.22647 19.6188C6.25105 19.4336 5.09294 19.0429 4.66753 18.1778C4.53527 17.9023 4.46608 17.6007 4.46501 17.2951Z" stroke="#C7C9D9" stroke-width="1.35336" stroke-linecap="round" stroke-linejoin="round"/>
</svg>
