<svg width="13" height="10" viewBox="0 0 13 10" fill="none" xmlns="http://www.w3.org/2000/svg">
<path fill-rule="evenodd" clip-rule="evenodd" d="M2.84099 0.362054L6.32792 0.345026C7.78602 0.337906 8.80891 1.33052 8.81589 2.76014L8.83597 6.87123C8.84295 8.30086 7.8298 9.30341 6.3717 9.31053L2.88477 9.32756C1.42667 9.33468 0.403778 8.34207 0.396797 6.91244L0.376721 2.80136C0.36974 1.37173 1.38289 0.369174 2.84099 0.362054ZM11.1829 1.74327C11.4465 1.60849 11.7566 1.62093 12.0096 1.77747C12.2627 1.9334 12.4145 2.20572 12.416 2.50427L12.4384 7.0923C12.4398 7.39146 12.2906 7.66465 12.0392 7.82304C11.9017 7.90927 11.7478 7.95372 11.5925 7.95447C11.4631 7.95511 11.3335 7.9254 11.2122 7.8647L10.3184 7.42245C9.98767 7.2578 9.78135 6.92505 9.77954 6.5543L9.76251 3.06761C9.7607 2.69625 9.96376 2.36151 10.2929 2.19485L11.1829 1.74327Z" fill="white"/>
</svg>
